<svg id="wave" style="transform:rotate(180deg); transition: 0.3s" viewBox="0 0 1440 490" version="1.1" xmlns="http://www.w3.org/2000/svg"><defs><linearGradient id="sw-gradient-0" x1="0" x2="0" y1="1" y2="0"><stop stop-color="rgba(9, 11, 29, 1)" offset="0%"></stop><stop stop-color="rgba(9, 11, 29, 1)" offset="100%"></stop></linearGradient></defs><path style="transform:translate(0, 0px); opacity:1" fill="url(#sw-gradient-0)" d="M0,0L30,57.2C60,114,120,229,180,294C240,359,300,376,360,334.8C420,294,480,196,540,171.5C600,147,660,196,720,212.3C780,229,840,212,900,171.5C960,131,1020,65,1080,73.5C1140,82,1200,163,1260,163.3C1320,163,1380,82,1440,98C1500,114,1560,229,1620,261.3C1680,294,1740,245,1800,212.3C1860,180,1920,163,1980,171.5C2040,180,2100,212,2160,187.8C2220,163,2280,82,2340,57.2C2400,33,2460,65,2520,130.7C2580,196,2640,294,2700,302.2C2760,310,2820,229,2880,204.2C2940,180,3000,212,3060,261.3C3120,310,3180,376,3240,343C3300,310,3360,180,3420,171.5C3480,163,3540,278,3600,318.5C3660,359,3720,327,3780,277.7C3840,229,3900,163,3960,163.3C4020,163,4080,229,4140,212.3C4200,196,4260,98,4290,49L4320,0L4320,490L4290,490C4260,490,4200,490,4140,490C4080,490,4020,490,3960,490C3900,490,3840,490,3780,490C3720,490,3660,490,3600,490C3540,490,3480,490,3420,490C3360,490,3300,490,3240,490C3180,490,3120,490,3060,490C3000,490,2940,490,2880,490C2820,490,2760,490,2700,490C2640,490,2580,490,2520,490C2460,490,2400,490,2340,490C2280,490,2220,490,2160,490C2100,490,2040,490,1980,490C1920,490,1860,490,1800,490C1740,490,1680,490,1620,490C1560,490,1500,490,1440,490C1380,490,1320,490,1260,490C1200,490,1140,490,1080,490C1020,490,960,490,900,490C840,490,780,490,720,490C660,490,600,490,540,490C480,490,420,490,360,490C300,490,240,490,180,490C120,490,60,490,30,490L0,490Z"></path></svg>